<svg width="798.614" height="70.403" viewBox="0 0 798.614 70.403" xmlns="http://www.w3.org/2000/svg"><g id="svgGroup" stroke-linecap="round" fill-rule="evenodd" font-size="9pt" stroke="#ffffff" stroke-width="0" fill="#ffffff" style="stroke:#ffffff;stroke-width:0;fill:#ffffff"><path d="M 459.8 53.401 L 459.8 44.701 C 459.8 35.867 455.133 29.481 443.255 28.019 A 45.571 45.571 0 0 0 437.7 27.701 L 396.3 27.701 C 390.425 27.701 387.618 25.496 387.504 21.461 A 9.174 9.174 0 0 1 387.5 21.201 L 387.5 16.901 A 6.529 6.529 0 0 1 388.246 13.682 C 389.191 11.983 391.048 10.914 393.887 10.546 A 18.786 18.786 0 0 1 396.3 10.401 L 455.9 10.401 L 455.9 0.001 L 396.3 0.001 A 42.046 42.046 0 0 0 388.76 0.621 C 378.344 2.526 374.2 8.677 374.2 17.001 L 374.2 21.101 C 374.2 29.936 378.867 36.322 390.745 37.784 A 45.571 45.571 0 0 0 396.3 38.101 L 437.7 38.101 C 443.575 38.101 446.382 40.307 446.496 44.342 A 9.174 9.174 0 0 1 446.5 44.601 L 446.5 53.501 A 6.529 6.529 0 0 1 445.754 56.72 C 444.809 58.419 442.952 59.488 440.113 59.857 A 18.786 18.786 0 0 1 437.7 60.001 L 376.5 60.001 L 376.5 70.401 L 437.7 70.401 A 42.046 42.046 0 0 0 445.24 69.782 C 455.656 67.877 459.8 61.726 459.8 53.401 Z M 798.6 53.401 L 798.6 44.701 C 798.6 35.867 793.933 29.481 782.055 28.019 A 45.571 45.571 0 0 0 776.5 27.701 L 735.1 27.701 C 729.225 27.701 726.418 25.496 726.304 21.461 A 9.174 9.174 0 0 1 726.3 21.201 L 726.3 16.901 A 6.529 6.529 0 0 1 727.046 13.682 C 727.991 11.983 729.848 10.914 732.687 10.546 A 18.786 18.786 0 0 1 735.1 10.401 L 794.7 10.401 L 794.7 0.001 L 735.1 0.001 A 42.046 42.046 0 0 0 727.56 0.621 C 717.144 2.526 713 8.677 713 17.001 L 713 21.101 C 713 29.936 717.667 36.322 729.545 37.784 A 45.571 45.571 0 0 0 735.1 38.101 L 776.5 38.101 C 782.375 38.101 785.182 40.307 785.296 44.342 A 9.174 9.174 0 0 1 785.3 44.601 L 785.3 53.501 A 6.529 6.529 0 0 1 784.554 56.72 C 783.609 58.419 781.752 59.488 778.913 59.857 A 18.786 18.786 0 0 1 776.5 60.001 L 715.3 60.001 L 715.3 70.401 L 776.5 70.401 A 42.046 42.046 0 0 0 784.04 69.782 C 794.456 67.877 798.6 61.726 798.6 53.401 Z M 362.6 70.401 L 362.6 0.001 L 349.3 0.001 L 349.3 28.001 L 291.7 28.001 L 291.7 0.001 L 278.4 0.001 L 278.4 70.401 L 291.7 70.401 L 291.7 38.401 L 349.3 38.401 L 349.3 70.401 L 362.6 70.401 Z M 103 70.401 L 56.5 0.001 L 46.8 0.001 L 0 70.401 L 14.8 70.401 L 51.7 13.701 L 88 70.401 L 103 70.401 Z M 637.2 70.401 L 590.7 0.001 L 581 0.001 L 534.2 70.401 L 549 70.401 L 585.9 13.701 L 622.2 70.401 L 637.2 70.401 Z M 514.4 70.401 L 514.4 10.401 L 550.3 10.401 L 550.3 0.001 L 464.2 0.001 L 464.2 10.401 L 501.1 10.401 L 501.1 70.401 L 514.4 70.401 Z M 672.4 70.401 L 672.4 10.401 L 708.3 10.401 L 708.3 0.001 L 622.2 0.001 L 622.2 10.401 L 659.1 10.401 L 659.1 70.401 L 672.4 70.401 Z M 269.1 27.401 L 269.1 17.001 C 269.1 8.167 264.433 1.781 252.555 0.319 A 45.571 45.571 0 0 0 247 0.001 L 189.3 0.001 L 189.3 70.401 L 202.6 70.401 L 202.6 44.401 L 247 44.401 A 42.046 42.046 0 0 0 254.54 43.782 C 264.956 41.877 269.1 35.726 269.1 27.401 Z M 180 70.401 L 180 60.001 L 122.9 60.001 L 122.9 0.001 L 109.5 0.001 L 109.5 70.401 L 180 70.401 Z M 247 34.001 L 202.6 34.001 L 202.6 10.401 L 247 10.401 C 252.875 10.401 255.682 12.607 255.796 16.642 A 9.174 9.174 0 0 1 255.8 16.901 L 255.8 27.501 A 6.529 6.529 0 0 1 255.054 30.72 C 254.109 32.419 252.252 33.488 249.413 33.857 A 18.786 18.786 0 0 1 247 34.001 Z" vector-effect="non-scaling-stroke"/></g></svg>